<?xml version="1.0" encoding="iso-8859-1"?>
<!-- Generator: Adobe Illustrator 19.0.0, SVG Export Plug-In . SVG Version: 6.00 Build 0)  -->
<svg version="1.1" id="Layer_1" xmlns="http://www.w3.org/2000/svg" xmlns:xlink="http://www.w3.org/1999/xlink" x="0px" y="0px"
	 viewBox="0 0 512 512" style="enable-background:new 0 0 512 512;" xml:space="preserve">
<g>
	<g>
		<path d="M483.567,206.769H30.471C14.231,206.769,0,219.344,0,235.623v39.423c0,16.279,14.231,30.185,30.471,30.185h453.096
			c16.241,0,28.433-13.906,28.433-30.185v-39.423C512,219.344,499.808,206.769,483.567,206.769z M492.308,275.046
			c0,5.418-3.356,10.493-8.74,10.493H30.471c-5.471,0-10.779-4.983-10.779-10.493v-39.423c0-5.417,5.394-9.161,10.779-9.161h453.096
			c5.471,0,8.74,3.651,8.74,9.161V275.046z" fill="#ffff"/>
	</g>
</g>
<g>
</g>
<g>
</g>
<g>
</g>
<g>
</g>
<g>
</g>
<g>
</g>
<g>
</g>
<g>
</g>
<g>
</g>
<g>
</g>
<g>
</g>
<g>
</g>
<g>
</g>
<g>
</g>
<g>
</g>
</svg>
